<svg xmlns="http://www.w3.org/2000/svg" width="1100" height="560" viewBox="0 0 1100 560">
  <rect width="100%" height="100%" fill="#f8fafc"/>
  <style>
    .usage-point{cursor:crosshair}
    .usage-point:hover{stroke:#0f172a;stroke-width:2}
    text{font-family:system-ui,-apple-system,BlinkMacSystemFont,"Segoe UI",sans-serif}
  </style>
  <text x="32" y="34" font-size="22" font-weight="700" fill="#0f172a">Codex usage limits</text>
  <text x="32" y="58" font-size="13" fill="#475569">Example data at the 5-minute LaunchAgent cadence, not live account usage</text>
  <rect x="78" y="72" width="772" height="402" fill="#ffffff" stroke="#cbd5e1"/>

  <line x1="78" y1="474" x2="850" y2="474" stroke="#e2e8f0"/>
  <line x1="78" y1="373.5" x2="850" y2="373.5" stroke="#e2e8f0"/>
  <line x1="78" y1="273" x2="850" y2="273" stroke="#e2e8f0"/>
  <line x1="78" y1="172.5" x2="850" y2="172.5" stroke="#e2e8f0"/>
  <line x1="78" y1="72" x2="850" y2="72" stroke="#e2e8f0"/>
  <text x="66" y="478" text-anchor="end" font-size="12" fill="#475569">0%</text>
  <text x="66" y="377.5" text-anchor="end" font-size="12" fill="#475569">25%</text>
  <text x="66" y="277" text-anchor="end" font-size="12" fill="#475569">50%</text>
  <text x="66" y="176.5" text-anchor="end" font-size="12" fill="#475569">75%</text>
  <text x="66" y="76" text-anchor="end" font-size="12" fill="#475569">100%</text>

  <line x1="78" y1="72" x2="78" y2="474" stroke="#cbd5e1" stroke-width="1" stroke-dasharray="4 6"/>
  <line x1="271" y1="72" x2="271" y2="474" stroke="#cbd5e1" stroke-width="1" stroke-dasharray="4 6"/>
  <line x1="464" y1="72" x2="464" y2="474" stroke="#cbd5e1" stroke-width="1" stroke-dasharray="4 6"/>
  <line x1="657" y1="72" x2="657" y2="474" stroke="#cbd5e1" stroke-width="1" stroke-dasharray="4 6"/>
  <line x1="850" y1="72" x2="850" y2="474" stroke="#cbd5e1" stroke-width="1" stroke-dasharray="4 6"/>

  <text x="78" y="524" font-size="12" fill="#475569">09:00</text>
  <text x="271" y="524" text-anchor="middle" font-size="12" fill="#475569">09:15</text>
  <text x="464" y="524" text-anchor="middle" font-size="12" fill="#475569">09:30</text>
  <text x="657" y="524" text-anchor="middle" font-size="12" fill="#475569">09:45</text>
  <text x="850" y="524" text-anchor="end" font-size="12" fill="#475569">10:00</text>

  <path d="M 78 413.7 L 142.33 409.7 L 206.67 401.6 L 271 389.6 L 335.33 377.5 L 399.67 365.5 L 464 349.4 L 528.33 337.3 L 592.67 325.3 L 657 317.2 L 721.33 309.2 L 785.67 297.1 L 850 285.1" fill="none" stroke="#2563eb" stroke-width="2.5"/>
  <circle class="usage-point" cx="78" cy="413.7" r="4" fill="#2563eb"><title>GPT-5.3-Codex 5-hour window - 09:00 - 15% used</title></circle>
  <circle class="usage-point" cx="142.33" cy="409.7" r="4" fill="#2563eb"><title>GPT-5.3-Codex 5-hour window - 09:05 - 16% used</title></circle>
  <circle class="usage-point" cx="206.67" cy="401.6" r="4" fill="#2563eb"><title>GPT-5.3-Codex 5-hour window - 09:10 - 18% used</title></circle>
  <circle class="usage-point" cx="271" cy="389.6" r="4" fill="#2563eb"><title>GPT-5.3-Codex 5-hour window - 09:15 - 21% used</title></circle>
  <circle class="usage-point" cx="335.33" cy="377.5" r="4" fill="#2563eb"><title>GPT-5.3-Codex 5-hour window - 09:20 - 24% used</title></circle>
  <circle class="usage-point" cx="399.67" cy="365.5" r="4" fill="#2563eb"><title>GPT-5.3-Codex 5-hour window - 09:25 - 27% used</title></circle>
  <circle class="usage-point" cx="464" cy="349.4" r="4" fill="#2563eb"><title>GPT-5.3-Codex 5-hour window - 09:30 - 31% used</title></circle>
  <circle class="usage-point" cx="528.33" cy="337.3" r="4" fill="#2563eb"><title>GPT-5.3-Codex 5-hour window - 09:35 - 34% used</title></circle>
  <circle class="usage-point" cx="592.67" cy="325.3" r="4" fill="#2563eb"><title>GPT-5.3-Codex 5-hour window - 09:40 - 37% used</title></circle>
  <circle class="usage-point" cx="657" cy="317.2" r="4" fill="#2563eb"><title>GPT-5.3-Codex 5-hour window - 09:45 - 39% used</title></circle>
  <circle class="usage-point" cx="721.33" cy="309.2" r="4" fill="#2563eb"><title>GPT-5.3-Codex 5-hour window - 09:50 - 41% used</title></circle>
  <circle class="usage-point" cx="785.67" cy="297.1" r="4" fill="#2563eb"><title>GPT-5.3-Codex 5-hour window - 09:55 - 44% used</title></circle>
  <circle class="usage-point" cx="850" cy="285.1" r="4" fill="#2563eb"><title>GPT-5.3-Codex 5-hour window - 10:00 - 47% used</title></circle>

  <path d="M 78 365.5 L 142.33 365.5 L 206.67 361.4 L 271 361.4 L 335.33 357.4 L 399.67 357.4 L 464 353.4 L 528.33 349.4 L 592.67 349.4 L 657 345.4 L 721.33 345.4 L 785.67 341.3 L 850 337.3" fill="none" stroke="#dc2626" stroke-width="2.5"/>
  <circle class="usage-point" cx="78" cy="365.5" r="4" fill="#dc2626"><title>GPT-5.3-Codex 7-day window - 09:00 - 27% used</title></circle>
  <circle class="usage-point" cx="142.33" cy="365.5" r="4" fill="#dc2626"><title>GPT-5.3-Codex 7-day window - 09:05 - 27% used</title></circle>
  <circle class="usage-point" cx="206.67" cy="361.4" r="4" fill="#dc2626"><title>GPT-5.3-Codex 7-day window - 09:10 - 28% used</title></circle>
  <circle class="usage-point" cx="271" cy="361.4" r="4" fill="#dc2626"><title>GPT-5.3-Codex 7-day window - 09:15 - 28% used</title></circle>
  <circle class="usage-point" cx="335.33" cy="357.4" r="4" fill="#dc2626"><title>GPT-5.3-Codex 7-day window - 09:20 - 29% used</title></circle>
  <circle class="usage-point" cx="399.67" cy="357.4" r="4" fill="#dc2626"><title>GPT-5.3-Codex 7-day window - 09:25 - 29% used</title></circle>
  <circle class="usage-point" cx="464" cy="353.4" r="4" fill="#dc2626"><title>GPT-5.3-Codex 7-day window - 09:30 - 30% used</title></circle>
  <circle class="usage-point" cx="528.33" cy="349.4" r="4" fill="#dc2626"><title>GPT-5.3-Codex 7-day window - 09:35 - 31% used</title></circle>
  <circle class="usage-point" cx="592.67" cy="349.4" r="4" fill="#dc2626"><title>GPT-5.3-Codex 7-day window - 09:40 - 31% used</title></circle>
  <circle class="usage-point" cx="657" cy="345.4" r="4" fill="#dc2626"><title>GPT-5.3-Codex 7-day window - 09:45 - 32% used</title></circle>
  <circle class="usage-point" cx="721.33" cy="345.4" r="4" fill="#dc2626"><title>GPT-5.3-Codex 7-day window - 09:50 - 32% used</title></circle>
  <circle class="usage-point" cx="785.67" cy="341.3" r="4" fill="#dc2626"><title>GPT-5.3-Codex 7-day window - 09:55 - 33% used</title></circle>
  <circle class="usage-point" cx="850" cy="337.3" r="4" fill="#dc2626"><title>GPT-5.3-Codex 7-day window - 10:00 - 34% used</title></circle>

  <path d="M 78 470 L 142.33 470 L 206.67 470 L 271 466 L 335.33 466 L 399.67 466 L 464 462 L 528.33 462 L 592.67 462 L 657 458 L 721.33 458 L 785.67 458 L 850 454" fill="none" stroke="#16a34a" stroke-width="2.5"/>
  <circle class="usage-point" cx="78" cy="470" r="4" fill="#16a34a"><title>GPT-5.3-Codex-Spark 5-hour window - 09:00 - 1% used</title></circle>
  <circle class="usage-point" cx="142.33" cy="470" r="4" fill="#16a34a"><title>GPT-5.3-Codex-Spark 5-hour window - 09:05 - 1% used</title></circle>
  <circle class="usage-point" cx="206.67" cy="470" r="4" fill="#16a34a"><title>GPT-5.3-Codex-Spark 5-hour window - 09:10 - 1% used</title></circle>
  <circle class="usage-point" cx="271" cy="466" r="4" fill="#16a34a"><title>GPT-5.3-Codex-Spark 5-hour window - 09:15 - 2% used</title></circle>
  <circle class="usage-point" cx="335.33" cy="466" r="4" fill="#16a34a"><title>GPT-5.3-Codex-Spark 5-hour window - 09:20 - 2% used</title></circle>
  <circle class="usage-point" cx="399.67" cy="466" r="4" fill="#16a34a"><title>GPT-5.3-Codex-Spark 5-hour window - 09:25 - 2% used</title></circle>
  <circle class="usage-point" cx="464" cy="462" r="4" fill="#16a34a"><title>GPT-5.3-Codex-Spark 5-hour window - 09:30 - 3% used</title></circle>
  <circle class="usage-point" cx="528.33" cy="462" r="4" fill="#16a34a"><title>GPT-5.3-Codex-Spark 5-hour window - 09:35 - 3% used</title></circle>
  <circle class="usage-point" cx="592.67" cy="462" r="4" fill="#16a34a"><title>GPT-5.3-Codex-Spark 5-hour window - 09:40 - 3% used</title></circle>
  <circle class="usage-point" cx="657" cy="458" r="4" fill="#16a34a"><title>GPT-5.3-Codex-Spark 5-hour window - 09:45 - 4% used</title></circle>
  <circle class="usage-point" cx="721.33" cy="458" r="4" fill="#16a34a"><title>GPT-5.3-Codex-Spark 5-hour window - 09:50 - 4% used</title></circle>
  <circle class="usage-point" cx="785.67" cy="458" r="4" fill="#16a34a"><title>GPT-5.3-Codex-Spark 5-hour window - 09:55 - 4% used</title></circle>
  <circle class="usage-point" cx="850" cy="454" r="4" fill="#16a34a"><title>GPT-5.3-Codex-Spark 5-hour window - 10:00 - 5% used</title></circle>

  <path d="M 78 450 L 142.33 450 L 206.67 450 L 271 450 L 335.33 446 L 399.67 446 L 464 446 L 528.33 446 L 592.67 442 L 657 442 L 721.33 442 L 785.67 442 L 850 438" fill="none" stroke="#9333ea" stroke-width="2.5"/>
  <circle class="usage-point" cx="78" cy="450" r="4" fill="#9333ea"><title>GPT-5.3-Codex-Spark 7-day window - 09:00 - 6% used</title></circle>
  <circle class="usage-point" cx="142.33" cy="450" r="4" fill="#9333ea"><title>GPT-5.3-Codex-Spark 7-day window - 09:05 - 6% used</title></circle>
  <circle class="usage-point" cx="206.67" cy="450" r="4" fill="#9333ea"><title>GPT-5.3-Codex-Spark 7-day window - 09:10 - 6% used</title></circle>
  <circle class="usage-point" cx="271" cy="450" r="4" fill="#9333ea"><title>GPT-5.3-Codex-Spark 7-day window - 09:15 - 6% used</title></circle>
  <circle class="usage-point" cx="335.33" cy="446" r="4" fill="#9333ea"><title>GPT-5.3-Codex-Spark 7-day window - 09:20 - 7% used</title></circle>
  <circle class="usage-point" cx="399.67" cy="446" r="4" fill="#9333ea"><title>GPT-5.3-Codex-Spark 7-day window - 09:25 - 7% used</title></circle>
  <circle class="usage-point" cx="464" cy="446" r="4" fill="#9333ea"><title>GPT-5.3-Codex-Spark 7-day window - 09:30 - 7% used</title></circle>
  <circle class="usage-point" cx="528.33" cy="446" r="4" fill="#9333ea"><title>GPT-5.3-Codex-Spark 7-day window - 09:35 - 7% used</title></circle>
  <circle class="usage-point" cx="592.67" cy="442" r="4" fill="#9333ea"><title>GPT-5.3-Codex-Spark 7-day window - 09:40 - 8% used</title></circle>
  <circle class="usage-point" cx="657" cy="442" r="4" fill="#9333ea"><title>GPT-5.3-Codex-Spark 7-day window - 09:45 - 8% used</title></circle>
  <circle class="usage-point" cx="721.33" cy="442" r="4" fill="#9333ea"><title>GPT-5.3-Codex-Spark 7-day window - 09:50 - 8% used</title></circle>
  <circle class="usage-point" cx="785.67" cy="442" r="4" fill="#9333ea"><title>GPT-5.3-Codex-Spark 7-day window - 09:55 - 8% used</title></circle>
  <circle class="usage-point" cx="850" cy="438" r="4" fill="#9333ea"><title>GPT-5.3-Codex-Spark 7-day window - 10:00 - 9% used</title></circle>

  <line x1="878" y1="86" x2="898" y2="86" stroke="#2563eb" stroke-width="3"/>
  <text x="906" y="90" font-size="12" fill="#0f172a">GPT-5.3-Codex 5-hour window</text>
  <line x1="878" y1="110" x2="898" y2="110" stroke="#dc2626" stroke-width="3"/>
  <text x="906" y="114" font-size="12" fill="#0f172a">GPT-5.3-Codex 7-day window</text>
  <line x1="878" y1="134" x2="898" y2="134" stroke="#16a34a" stroke-width="3"/>
  <text x="906" y="138" font-size="12" fill="#0f172a">Spark 5-hour window</text>
  <line x1="878" y1="158" x2="898" y2="158" stroke="#9333ea" stroke-width="3"/>
  <text x="906" y="162" font-size="12" fill="#0f172a">Spark 7-day window</text>
</svg>
